# File created by Blade
# Date/Time:  Fri Jan 16 19:00:24 2015
# Frame Rate: 120.000 fps
#------------------------------------------------------
:FULLY-SPECIFIED
:DEGREES
2988
root 18.265326 36.254644 -20.985476 -190.259536 -14.372046 -173.666377
Spine 18.130843 -15.272088 -5.852791
Head 9.039763 -1.952191 13.611041
LeftShoulder -5.073969 -30.036309 12.582122
LeftArm 3.322777 -3.902407 -17.863094
LeftForeArm -4.066685 -0.000000 1.423885
LeftHand -2.566919 -0.000000 3.028583
LeftHandThumb1 -26.253704 0.000000 33.147579
RightShoulder -13.484341 -3.156353 2.930660
RightArm -11.419912 54.351603 25.554799
RightForeArm -26.266104 0.000000 33.121950
RightHand -13.350830 -0.000000 -2.848298
RightHandThumb1 -24.326973 -0.000000 -32.862282
LeftUpLeg 9.416456 7.165514 -0.922886
LeftLeg 0.183419 -0.000000 -0.000000
LeftFoot -16.656929 14.978520 -11.591031
LeftToeBase 28.668235 -0.000000 -0.000000
RightUpLeg -77.029658 9.005563 26.503157
RightLeg 108.882245 -0.000000 -0.000000
RightFoot 34.603366 -37.386540 -18.826774
RightToeBase 21.568672 -0.000000 -0.000000
2989
root 18.211239 36.259334 -20.951789 -190.144059 -13.856984 -173.612033
Spine 17.959556 -14.829054 -5.491051
Head 9.028590 -1.915956 13.482965
LeftShoulder -5.213629 -30.034588 12.542895
LeftArm 3.204202 -4.058130 -17.834031
LeftForeArm -3.976941 -0.000000 1.423517
LeftHand -2.568366 0.000000 3.020916
LeftHandThumb1 -26.253704 0.000000 33.147579
RightShoulder -13.322275 -3.005490 2.864242
RightArm -10.650311 54.195627 25.656133
RightForeArm -26.244632 -0.000000 33.031239
RightHand -13.372118 -0.000000 -2.961789
RightHandThumb1 -24.326973 -0.000000 -32.862282
LeftUpLeg 9.392820 7.666812 -0.849668
LeftLeg 0.013810 -0.000000 -0.000000
LeftFoot -16.805022 14.867469 -11.835127
LeftToeBase 29.923522 -0.000000 -0.000000
RightUpLeg -77.394639 8.111613 26.378686
RightLeg 108.948314 -0.000000 -0.000000
RightFoot 34.691628 -37.456904 -18.834700
RightToeBase 21.466210 -0.000000 -0.000000
2990
root 18.158865 36.263819 -20.915315 -190.019581 -13.348850 -173.569210
Spine 17.799941 -14.390054 -5.161996
Head 9.006982 -1.867359 13.368488
LeftShoulder -5.377427 -29.988806 12.505655
LeftArm 3.131198 -4.193264 -17.781189
LeftForeArm -3.927993 -0.000000 1.417833
LeftHand -2.566643 -0.000000 3.004166
LeftHandThumb1 -26.253704 0.000000 33.147579
RightShoulder -13.152501 -2.831699 2.804528
RightArm -9.879474 54.131417 25.744333
RightForeArm -26.218416 0.000000 32.939242
RightHand -13.352276 -0.000000 -3.068888
RightHandThumb1 -24.326973 -0.000000 -32.862282
LeftUpLeg 9.348725 8.216097 -0.781209
LeftLeg -0.127722 -0.000000 0.000000
LeftFoot -16.922949 14.677337 -12.084162
LeftToeBase 30.972276 -0.000000 -0.000000
RightUpLeg -77.785303 7.170308 26.245632
RightLeg 109.032462 -0.000000 -0.000000
RightFoot 34.759986 -37.443605 -18.912693
RightToeBase 21.204704 -0.000000 -0.000000
2991
root 18.106782 36.269666 -20.882884 -189.917394 -12.875576 -173.499010
Spine 17.665699 -14.015308 -4.831119
Head 9.000569 -1.751596 13.272616
LeftShoulder -5.552996 -29.992490 12.487001
LeftArm 3.012018 -4.205372 -17.721115
LeftForeArm -3.888401 -0.000000 1.420409
LeftHand -2.529034 0.000000 3.129562
LeftHandThumb1 -26.253704 0.000000 33.147579
RightShoulder -12.943522 -2.631724 2.732249
RightArm -9.211543 54.012127 25.777750
RightForeArm -26.156507 0.000000 32.919762
RightHand -13.290537 -0.000000 -3.179162
RightHandThumb1 -24.326973 -0.000000 -32.862282
LeftUpLeg 9.331713 8.675023 -0.698061
LeftLeg -0.289304 -0.000000 0.000000
LeftFoot -17.109635 14.538171 -12.391564
LeftToeBase 32.371163 -0.000000 -0.000000
RightUpLeg -78.151072 6.202739 26.121100
RightLeg 109.099819 -0.000000 -0.000000
RightFoot 34.744345 -37.498990 -18.897615
RightToeBase 21.286651 -0.000000 -0.000000
2992
root 18.056705 36.279601 -20.854612 -189.865642 -12.435509 -173.384653
Spine 17.582255 -13.652920 -4.469315
Head 8.991015 -1.679959 13.163283
LeftShoulder -5.723994 -29.948287 12.417366
LeftArm 2.961745 -4.334024 -17.638354
LeftForeArm -3.694933 -0.000000 1.421347
LeftHand -2.584507 0.000000 3.088714
LeftHandThumb1 -26.253704 0.000000 33.147579
RightShoulder -12.754681 -2.466521 2.671651
RightArm -8.470421 54.054000 25.859038
RightForeArm -26.187426 -0.000000 32.891492
RightHand -13.350517 -0.000000 -3.231414
RightHandThumb1 -24.326973 -0.000000 -32.862282
LeftUpLeg 9.338648 9.200055 -0.548839
LeftLeg -0.400530 -0.000000 0.000000
LeftFoot -17.260772 14.281417 -12.681205
LeftToeBase 33.087327 -0.000000 -0.000000
RightUpLeg -78.475585 5.171520 26.041349
RightLeg 109.177395 -0.000000 -0.000000
RightFoot 34.709465 -37.654998 -18.840621
RightToeBase 21.073967 -0.000000 -0.000000
